# xmcd
#
# Track frame offsets:
#   150
#   19664
#   45644
#   63534
#   82394
#   99172
#   130465
#   146789
#   168776
#   184696
#   204377
#   227742
#   246268
#
# Disc length: 3583 seconds
#
# Revision: 0
# Processed by: cddbd v1.5.1PL0 Copyright (c) Steve Scherf et al.
# Submitted via: uFREEDB ActiveX Control 1.5
#
DISCID=b40dfd0d
DTITLE=Aeroilis - Aeroilis
DYEAR=1900
DGENRE=Gospel and Religious
TTITLE0=Onde Encontrei Tudo
TTITLE1=Silêncio
TTITLE2=Posso Ver
TTITLE3=O Tempo
TTITLE4=Em Suas Mãos
TTITLE5=Coragem
TTITLE6=Sei Que Passou
TTITLE7=Preso
TTITLE8=Os Teus Olhos
TTITLE9=Eu Acreditei
TTITLE10=Sigo em Paz
TTITLE11=Posso Crer
TTITLE12=Em Meio ao Frio e a Dor
EXTD=
EXTT0=
EXTT1=
EXTT2=
EXTT3=
EXTT4=
EXTT5=
EXTT6=
EXTT7=
EXTT8=
EXTT9=
EXTT10=
EXTT11=
EXTT12=
PLAYORDER=
